<?xml version="1.0" encoding="UTF-8"?>
<svg version="1.1" xmlns="http://www.w3.org/2000/svg" width="300" height="54">
<path d="M0 0 C99 0 198 0 300 0 C300 17.82 300 35.64 300 54 C201 54 102 54 0 54 C0 36.18 0 18.36 0 0 Z " fill="#FDFDFD" transform="translate(0,0)"/>
<path d="M0 0 C0.33 0.66 0.66 1.32 1 2 C1.9075 1.9175 2.815 1.835 3.75 1.75 C9.41126313 1.72675046 14.82889567 3.84995055 20 6 C22 8 22 8 22.125 10.625 C22.08375 11.40875 22.0425 12.1925 22 13 C17.53023675 12.44127959 13.28134577 11.61440617 8.92578125 10.47265625 C6.3088236 9.83036036 3.65675356 9.44279226 1 9 C0.34 8.67 -0.32 8.34 -1 8 C-2.99960012 7.960008 -5.00047242 7.95653201 -7 8 C-5.68 8.66 -4.36 9.32 -3 10 C-4.74965358 10.05429959 -6.49979787 10.09292823 -8.25 10.125 C-9.22453125 10.14820313 -10.1990625 10.17140625 -11.203125 10.1953125 C-14.0599167 9.99581587 -15.50022764 9.27125176 -18 8 C-18.99 8.33 -19.98 8.66 -21 9 C-20.67 8.01 -20.34 7.02 -20 6 C-13.49954833 2.81109918 -7.16697266 2.34640368 0 2 C0 1.34 0 0.68 0 0 Z " fill="#EB9C3F" transform="translate(153,17)"/>
<path d="M0 0 C5.61 0.33 11.22 0.66 17 1 C17 1.66 17 2.32 17 3 C17.66 3 18.32 3 19 3 C19 4.65 19 6.3 19 8 C13.61053939 8.917355 8.45972465 9.09522776 3 9 C2.01 9 1.02 9 0 9 C-0.99 9 -1.98 9 -3 9 C-3 8.01 -3 7.02 -3 6 C-4.32 6 -5.64 6 -7 6 C-7 6.66 -7 7.32 -7 8 C-7.99 8 -8.98 8 -10 8 C-10 6.68 -10 5.36 -10 4 C-9.0925 3.855625 -8.185 3.71125 -7.25 3.5625 C-4.78523044 3.13590527 -2.41152893 2.64925779 0 2 C0 1.34 0 0.68 0 0 Z " fill="#E4E4E4" transform="translate(148,29)"/>
<path d="M0 0 C0.804375 0.495 0.804375 0.495 1.625 1 C4.5391061 2.22699204 6.86867708 2.14233286 10 2 C10.33 1.34 10.66 0.68 11 0 C15.21878192 -0.19622241 18.17010894 0.19769832 22 2 C21.01 2.495 21.01 2.495 20 3 C20 3.66 20 4.32 20 5 C17.69 5 15.38 5 13 5 C13 5.66 13 6.32 13 7 C9.32589215 8.17571451 5.83070817 8.07366746 2 8 C2 7.01 2 6.02 2 5 C-0.97 4.505 -0.97 4.505 -4 4 C-2.68 2.68 -1.36 1.36 0 0 Z " fill="#CFCFCF" transform="translate(135,24)"/>
<path d="M0 0 C0.83144531 0.28617188 1.66289062 0.57234375 2.51953125 0.8671875 C4.55752674 1.56994456 6.59166919 2.28385833 8.625 3 C4.9089582 4.17261764 2.40639451 3.58545295 -1.34375 2.54296875 C-3.99069507 1.83541997 -6.67434204 1.45010966 -9.375 1 C-10.035 0.67 -10.695 0.34 -11.375 0 C-13.37460012 -0.039992 -15.37547242 -0.04346799 -17.375 0 C-16.055 0.66 -14.735 1.32 -13.375 2 C-15.14507714 2.08114106 -16.91622098 2.13925505 -18.6875 2.1875 C-19.67363281 2.22230469 -20.65976563 2.25710937 -21.67578125 2.29296875 C-24.375 2 -24.375 2 -26.23046875 0.48828125 C-26.60816406 -0.00285156 -26.98585937 -0.49398438 -27.375 -1 C-25.50112523 -1.3396019 -23.62583303 -1.67138691 -21.75 -2 C-20.70585937 -2.185625 -19.66171875 -2.37125 -18.5859375 -2.5625 C-11.55924056 -3.51990883 -6.5834052 -2.33096644 0 0 Z " fill="#57524D" transform="translate(163.375,25)"/>
<path d="M0 0 C7.75 -0.125 7.75 -0.125 10 1 C10 2.32 10 3.64 10 5 C6.78548731 6.60725635 3.56387464 6.05748185 0 6 C-0.33 5.34 -0.66 4.68 -1 4 C0.32 4 1.64 4 3 4 C1.68 3.67 0.36 3.34 -1 3 C-0.67 2.01 -0.34 1.02 0 0 Z " fill="#646464" transform="translate(113,32)"/>
<path d="M0 0 C-0.33 1.32 -0.66 2.64 -1 4 C-0.01 4.33 0.98 4.66 2 5 C-4.41136364 5.49318182 -4.41136364 5.49318182 -7.3125 3.0625 C-7.869375 2.381875 -8.42625 1.70125 -9 1 C-9.66 0.67 -10.32 0.34 -11 0 C-11 -0.66 -11 -1.32 -11 -2 C-6.73902472 -3.42032509 -4.01601926 -1.62811592 0 0 Z " fill="#FDEFDF" transform="translate(184,22)"/>
<path d="M0 0 C1.65 0.33 3.3 0.66 5 1 C3.83981643 4.48055071 2.90717073 5.78136971 0 8 C-3.75 8.25 -3.75 8.25 -7 8 C-7 7.34 -7 6.68 -7 6 C-6.01 6 -5.02 6 -4 6 C-4.33 5.01 -4.66 4.02 -5 3 C-3.35 2.34 -1.7 1.68 0 1 C0 0.67 0 0.34 0 0 Z " fill="#FDEFDE" transform="translate(128,19)"/>
<path d="M0 0 C5.61 0.33 11.22 0.66 17 1 C17 1.66 17 2.32 17 3 C17.66 3 18.32 3 19 3 C19 4.65 19 6.3 19 8 C18.01 8 17.02 8 16 8 C15.67 6.35 15.34 4.7 15 3 C10.05 2.67 5.1 2.34 0 2 C0 1.34 0 0.68 0 0 Z " fill="#707070" transform="translate(148,29)"/>
<path d="M0 0 C0.89203125 0.01804687 1.7840625 0.03609375 2.703125 0.0546875 C3.71632812 0.08949219 3.71632812 0.08949219 4.75 0.125 C4.42 0.785 4.09 1.445 3.75 2.125 C1.3515625 2.72265625 1.3515625 2.72265625 -1.625 3.1875 C-4.64480486 3.66955328 -7.34352087 4.15617362 -10.25 5.125 C-9.25 2.125 -9.25 2.125 -7.515625 0.9453125 C-4.86680319 -0.01374367 -2.80934533 -0.07393014 0 0 Z " fill="#F8A23E" transform="translate(142.25,20.875)"/>
<path d="M0 0 C0.99 0 1.98 0 3 0 C3 1.32 3 2.64 3 4 C4.32 4 5.64 4 7 4 C7 2.68 7 1.36 7 0 C7.99 0 8.98 0 10 0 C10.33 1.32 10.66 2.64 11 4 C8.59454362 5.20272819 7.05003047 5.10071472 4.375 5.0625 C3.14910156 5.04896484 3.14910156 5.04896484 1.8984375 5.03515625 C0.95871094 5.01775391 0.95871094 5.01775391 0 5 C0 3.35 0 1.7 0 0 Z " fill="#494949" transform="translate(151,33)"/>
<path d="M0 0 C2.97 0 5.94 0 9 0 C8.67 1.32 8.34 2.64 8 4 C5.69 4 3.38 4 1 4 C0.67 2.68 0.34 1.36 0 0 Z " fill="#757575" transform="translate(175,34)"/>
<path d="M0 0 C0.33 0.66 0.66 1.32 1 2 C3.31 2 5.62 2 8 2 C8 2.33 8 2.66 8 3 C5.69 3.33 3.38 3.66 1 4 C1 4.33 1 4.66 1 5 C-1.64 5.33 -4.28 5.66 -7 6 C-7 5.67 -7 5.34 -7 5 C-8.65 4.67 -10.3 4.34 -12 4 C-12 3.67 -12 3.34 -12 3 C-6.06 2.505 -6.06 2.505 0 2 C0 1.34 0 0.68 0 0 Z " fill="#EFB36D" transform="translate(153,17)"/>
<path d="M0 0 C3.96 0 7.92 0 12 0 C12 0.99 12 1.98 12 3 C10.56260487 3.02712066 9.12506137 3.04645067 7.6875 3.0625 C6.48673828 3.07990234 6.48673828 3.07990234 5.26171875 3.09765625 C3 3 3 3 0 2 C0 1.34 0 0.68 0 0 Z " fill="#888888" transform="translate(148,41)"/>
<path d="M0 0 C2.64 0 5.28 0 8 0 C7.67 1.32 7.34 2.64 7 4 C4.69 4 2.38 4 0 4 C0 2.68 0 1.36 0 0 Z " fill="#727272" transform="translate(187,34)"/>
<path d="M0 0 C2.97 0 5.94 0 9 0 C8.01 0.495 8.01 0.495 7 1 C7 2.32 7 3.64 7 5 C5.68 5 4.36 5 3 5 C3 3.68 3 2.36 3 1 C2.01 0.67 1.02 0.34 0 0 Z " fill="#A7A7A7" transform="translate(151,32)"/>
<path d="M0 0 C3.3 0 6.6 0 10 0 C10 1.32 10 2.64 10 4 C9.01 4 8.02 4 7 4 C7 3.01 7 2.02 7 1 C5.68 1 4.36 1 3 1 C3 1.66 3 2.32 3 3 C2.01 3 1.02 3 0 3 C0 2.01 0 1.02 0 0 Z " fill="#474747" transform="translate(138,34)"/>
<path d="M0 0 C0.66 0 1.32 0 2 0 C2 0.66 2 1.32 2 2 C3.32 2 4.64 2 6 2 C6 1.34 6 0.68 6 0 C6.99 0 7.98 0 9 0 C9 0.99 9 1.98 9 3 C6.36 3.33 3.72 3.66 1 4 C0.67 2.68 0.34 1.36 0 0 Z " fill="#525252" transform="translate(126,34)"/>
<path d="M0 0 C3.46941546 0.45822468 6.67395049 0.89131683 10 2 C10 2.66 10 3.32 10 4 C3.47692308 3.38461538 3.47692308 3.38461538 1.0625 1.4375 C0.711875 0.963125 0.36125 0.48875 0 0 Z " fill="#191919" transform="translate(149,22)"/>
<path d="M0 0 C0 0.66 0 1.32 0 2 C0.66 2.33 1.32 2.66 2 3 C1.67 3.66 1.34 4.32 1 5 C-1.31 4.67 -3.62 4.34 -6 4 C-5.34 3.67 -4.68 3.34 -4 3 C-4 2.34 -4 1.68 -4 1 C-2 0 -2 0 0 0 Z " fill="#FDE5C9" transform="translate(170,17)"/>
<path d="M0 0 C7.75 -0.125 7.75 -0.125 10 1 C10 1.66 10 2.32 10 3 C2.25 2.25 2.25 2.25 0 0 Z " fill="#9E9E9E" transform="translate(113,32)"/>
<path d="M0 0 C0 1.32 0 2.64 0 4 C-1.98 4 -3.96 4 -6 4 C-6 3.01 -6 2.02 -6 1 C-3.92446352 0.4465236 -2.15634036 0 0 0 Z " fill="#929292" transform="translate(168,40)"/>
<path d="M0 0 C2.97 0 5.94 0 9 0 C9 0.66 9 1.32 9 2 C4.545 2.495 4.545 2.495 0 3 C0 2.01 0 1.02 0 0 Z " fill="#5C5C5C" transform="translate(126,41)"/>
<path d="M0 0 C1.98 0 3.96 0 6 0 C6 0.99 6 1.98 6 3 C4.02 3 2.04 3 0 3 C0 2.01 0 1.02 0 0 Z " fill="#717171" transform="translate(176,41)"/>
<path d="M0 0 C2.97 0.495 2.97 0.495 6 1 C5.01 1.495 5.01 1.495 4 2 C4 2.66 4 3.32 4 4 C1.69 4 -0.62 4 -3 4 C-2.01 3.34 -1.02 2.68 0 2 C0 1.34 0 0.68 0 0 Z " fill="#E4E4E4" transform="translate(151,25)"/>
<path d="M0 0 C2.125 0.375 2.125 0.375 4 1 C4 1.99 4 2.98 4 4 C2.35 4.33 0.7 4.66 -1 5 C-1.33 4.01 -1.66 3.02 -2 2 C-1.34 1.34 -0.68 0.68 0 0 Z " fill="#FDECD8" transform="translate(137,17)"/>
</svg>
